<svg xmlns="http://www.w3.org/2000/svg" width="1280" height="720" viewBox="0 0 1280 720" role="img" aria-labelledby="de-title de-desc">
  <title id="de-title">Budgie desktop environment preview</title>
  <desc id="de-desc">Budgie with top panel, Raven sidebar, Nemo file manager, and Tilix terminal.</desc>
  <defs>
  <linearGradient id="bud_bg" x1="0" y1="0" x2="0" y2="1">
    <stop offset="0%" stop-color="#2a3040"/>
    <stop offset="100%" stop-color="#1a2030"/>
  </linearGradient>
  </defs>
  <rect width="1280" height="720" fill="url(#bud_bg)"/>
  <rect width="1280" height="40" fill="#252c3a"/>
  <circle cx="20" cy="20" r="13" fill="#6c5ce7"/>
  <text x="20" y="25" text-anchor="middle" fill="white" font-family="sans-serif" font-size="13" font-weight="700">B</text>
  <circle cx="52" cy="20" r="11" fill="#e01b24"/>
  <circle cx="76" cy="20" r="11" fill="#1c71d8"/>
  <circle cx="100" cy="20" r="11" fill="#ff7800"/>
  <circle cx="124" cy="20" r="11" fill="#33d17a"/>
  <rect x="148" y="8" width="165" height="24" rx="3" fill="#3a4254"/>
  <text x="230" y="24" text-anchor="middle" fill="rgba(255,255,255,0.85)" font-family="sans-serif" font-size="11">Nemo — Home</text>
  <rect x="317" y="8" width="165" height="24" rx="3" fill="#2a3244"/>
  <text x="399" y="24" text-anchor="middle" fill="rgba(255,255,255,0.85)" font-family="sans-serif" font-size="11">Firefox</text>
  <rect x="486" y="8" width="165" height="24" rx="3" fill="#2a3244"/>
  <text x="568" y="24" text-anchor="middle" fill="rgba(255,255,255,0.85)" font-family="sans-serif" font-size="11">Tilix</text>
  <text x="640" y="25" text-anchor="middle" fill="white" font-family="sans-serif" font-size="13">Monday, 27 April   21:32</text>
  <circle cx="1140" cy="20" r="5" fill="rgba(255,255,255,0.7)"/>
  <circle cx="1156" cy="20" r="5" fill="rgba(255,255,255,0.7)"/>
  <circle cx="1172" cy="20" r="5" fill="rgba(255,255,255,0.7)"/>
  <circle cx="1188" cy="20" r="5" fill="rgba(255,255,255,0.7)"/>
  <rect x="1255" y="40" width="25" height="680" fill="rgba(30,36,52,0.85)"/>
  <text x="1268" y="120" text-anchor="middle" fill="rgba(255,255,255,0.3)" font-family="sans-serif" font-size="9" writing-mode="tb">RAVEN</text>
  <rect x="64" y="62" width="755" height="510" rx="8" fill="rgba(0,0,0,0.45)"/>
  <rect x="60" y="58" width="755" height="510" rx="8" fill="#1e2a3e"/>
  <rect x="60" y="58" width="755" height="30" rx="8" fill="#2e3a50"/>
  <rect x="60" y="66" width="755" height="22" fill="#2e3a50"/>
  <text x="437" y="78" text-anchor="middle" fill="rgba(255,255,255,0.9)" font-family="sans-serif" font-size="13">Nemo — /home/user</text>
  <circle cx="74" cy="73" r="6" fill="#e01b24"/>
  <circle cx="92" cy="73" r="6" fill="#febc2e"/>
  <circle cx="110" cy="73" r="6" fill="#33d17a"/>
  <rect x="60" y="88" width="755" height="26" fill="#253244"/>
  <rect x="190" y="91" width="280" height="18" rx="3" fill="#19243a"/>
  <text x="330" y="104" text-anchor="middle" fill="rgba(255,255,255,0.7)" font-family="sans-serif" font-size="11">/home/user</text>
  <rect x="60" y="114" width="160" height="454" fill="#1a2436"/>
  <text x="76" y="136" text-anchor="start" fill="rgba(255,255,255,0.45)" font-family="sans-serif" font-size="10">PLACES</text>
  <rect x="67" y="141" width="145" height="24" rx="4" fill="rgba(255,255,255,0.1)"/>
  <text x="80" y="158" text-anchor="start" fill="white" font-family="sans-serif" font-size="12">Home</text>
  <text x="80" y="180" text-anchor="start" fill="rgba(255,255,255,0.6)" font-family="sans-serif" font-size="12">Desktop</text>
  <text x="80" y="202" text-anchor="start" fill="rgba(255,255,255,0.6)" font-family="sans-serif" font-size="12">Documents</text>
  <text x="80" y="224" text-anchor="start" fill="rgba(255,255,255,0.6)" font-family="sans-serif" font-size="12">Downloads</text>
  <text x="80" y="246" text-anchor="start" fill="rgba(255,255,255,0.6)" font-family="sans-serif" font-size="12">Music</text>
  <text x="80" y="268" text-anchor="start" fill="rgba(255,255,255,0.6)" font-family="sans-serif" font-size="12">Pictures</text>
  <text x="76" y="298" text-anchor="start" fill="rgba(255,255,255,0.45)" font-family="sans-serif" font-size="10">DEVICES</text>
  <text x="80" y="318" text-anchor="start" fill="rgba(255,255,255,0.6)" font-family="sans-serif" font-size="12">sda1</text>
  <rect x="220" y="114" width="595" height="454" fill="#131d2e"/>
  <rect x="240" y="130" width="72" height="72" rx="6" fill="rgba(255,255,255,0.07)"/>
  <rect x="253" y="144" width="44" height="32" rx="3" fill="#6c5ce7"/>
  <rect x="253" y="141" width="22" height="10" rx="3" fill="#6c5ce7"/>
  <text x="276" y="216" text-anchor="middle" fill="rgba(255,255,255,0.7)" font-family="sans-serif" font-size="10">Desktop</text>
  <rect x="347" y="130" width="72" height="72" rx="6" fill="rgba(255,255,255,0.07)"/>
  <rect x="360" y="144" width="44" height="32" rx="3" fill="#6c5ce7"/>
  <rect x="360" y="141" width="22" height="10" rx="3" fill="#6c5ce7"/>
  <text x="383" y="216" text-anchor="middle" fill="rgba(255,255,255,0.7)" font-family="sans-serif" font-size="10">Documents</text>
  <rect x="454" y="130" width="72" height="72" rx="6" fill="rgba(255,255,255,0.07)"/>
  <rect x="467" y="144" width="44" height="32" rx="3" fill="#6c5ce7"/>
  <rect x="467" y="141" width="22" height="10" rx="3" fill="#6c5ce7"/>
  <text x="490" y="216" text-anchor="middle" fill="rgba(255,255,255,0.7)" font-family="sans-serif" font-size="10">Downloads</text>
  <rect x="561" y="130" width="72" height="72" rx="6" fill="rgba(255,255,255,0.07)"/>
  <rect x="574" y="144" width="44" height="32" rx="3" fill="#6c5ce7"/>
  <rect x="574" y="141" width="22" height="10" rx="3" fill="#6c5ce7"/>
  <text x="597" y="216" text-anchor="middle" fill="rgba(255,255,255,0.7)" font-family="sans-serif" font-size="10">Music</text>
  <rect x="668" y="130" width="72" height="72" rx="6" fill="rgba(255,255,255,0.07)"/>
  <rect x="681" y="144" width="44" height="32" rx="3" fill="#6c5ce7"/>
  <rect x="681" y="141" width="22" height="10" rx="3" fill="#6c5ce7"/>
  <text x="704" y="216" text-anchor="middle" fill="rgba(255,255,255,0.7)" font-family="sans-serif" font-size="10">Pictures</text>
  <rect x="240" y="232" width="72" height="72" rx="6" fill="rgba(255,255,255,0.07)"/>
  <rect x="253" y="246" width="44" height="32" rx="3" fill="#6c5ce7"/>
  <rect x="253" y="243" width="22" height="10" rx="3" fill="#6c5ce7"/>
  <text x="276" y="318" text-anchor="middle" fill="rgba(255,255,255,0.7)" font-family="sans-serif" font-size="10">Templates</text>
  <rect x="347" y="232" width="72" height="72" rx="6" fill="rgba(255,255,255,0.07)"/>
  <rect x="360" y="246" width="44" height="32" rx="3" fill="#6c5ce7"/>
  <rect x="360" y="243" width="22" height="10" rx="3" fill="#6c5ce7"/>
  <text x="383" y="318" text-anchor="middle" fill="rgba(255,255,255,0.7)" font-family="sans-serif" font-size="10">Videos</text>
  <rect x="454" y="232" width="72" height="72" rx="6" fill="rgba(255,255,255,0.07)"/>
  <rect x="467" y="246" width="44" height="32" rx="3" fill="#6c5ce7"/>
  <rect x="467" y="243" width="22" height="10" rx="3" fill="#6c5ce7"/>
  <text x="490" y="318" text-anchor="middle" fill="rgba(255,255,255,0.7)" font-family="sans-serif" font-size="10">notes.txt</text>
  <rect x="561" y="232" width="72" height="72" rx="6" fill="rgba(255,255,255,0.07)"/>
  <rect x="574" y="246" width="44" height="32" rx="3" fill="#6c5ce7"/>
  <rect x="574" y="243" width="22" height="10" rx="3" fill="#6c5ce7"/>
  <text x="597" y="318" text-anchor="middle" fill="rgba(255,255,255,0.7)" font-family="sans-serif" font-size="10">photo.jpg</text>
  <rect x="668" y="232" width="72" height="72" rx="6" fill="rgba(255,255,255,0.07)"/>
  <rect x="681" y="246" width="44" height="32" rx="3" fill="#6c5ce7"/>
  <rect x="681" y="243" width="22" height="10" rx="3" fill="#6c5ce7"/>
  <text x="704" y="318" text-anchor="middle" fill="rgba(255,255,255,0.7)" font-family="sans-serif" font-size="10">script.sh</text>
  <rect x="240" y="334" width="72" height="72" rx="6" fill="rgba(255,255,255,0.07)"/>
  <rect x="253" y="348" width="44" height="32" rx="3" fill="#6c5ce7"/>
  <rect x="253" y="345" width="22" height="10" rx="3" fill="#6c5ce7"/>
  <text x="276" y="420" text-anchor="middle" fill="rgba(255,255,255,0.7)" font-family="sans-serif" font-size="10">project</text>
  <rect x="347" y="334" width="72" height="72" rx="6" fill="rgba(255,255,255,0.07)"/>
  <rect x="360" y="348" width="44" height="32" rx="3" fill="#6c5ce7"/>
  <rect x="360" y="345" width="22" height="10" rx="3" fill="#6c5ce7"/>
  <text x="383" y="420" text-anchor="middle" fill="rgba(255,255,255,0.7)" font-family="sans-serif" font-size="10">backup</text>
  <rect x="454" y="334" width="72" height="72" rx="6" fill="rgba(255,255,255,0.07)"/>
  <rect x="467" y="348" width="44" height="32" rx="3" fill="#6c5ce7"/>
  <rect x="467" y="345" width="22" height="10" rx="3" fill="#6c5ce7"/>
  <rect x="561" y="334" width="72" height="72" rx="6" fill="rgba(255,255,255,0.07)"/>
  <rect x="574" y="348" width="44" height="32" rx="3" fill="#6c5ce7"/>
  <rect x="574" y="345" width="22" height="10" rx="3" fill="#6c5ce7"/>
  <rect x="668" y="334" width="72" height="72" rx="6" fill="rgba(255,255,255,0.07)"/>
  <rect x="681" y="348" width="44" height="32" rx="3" fill="#6c5ce7"/>
  <rect x="681" y="345" width="22" height="10" rx="3" fill="#6c5ce7"/>
  <rect x="852" y="82" width="360" height="290" rx="8" fill="rgba(0,0,0,0.45)"/>
  <rect x="848" y="78" width="360" height="290" rx="8" fill="#0a0e1a"/>
  <rect x="848" y="78" width="360" height="30" rx="8" fill="#1e2a3e"/>
  <rect x="848" y="86" width="360" height="22" fill="#1e2a3e"/>
  <text x="1028" y="98" text-anchor="middle" fill="rgba(255,255,255,0.9)" font-family="sans-serif" font-size="13">Tilix — Terminal</text>
  <circle cx="862" cy="93" r="6" fill="#e01b24"/>
  <circle cx="880" cy="93" r="6" fill="#febc2e"/>
  <circle cx="898" cy="93" r="6" fill="#33d17a"/>
  <text x="862" y="136" fill="#6c5ce7" font-family="monospace" font-size="12">user@budgie:~$</text>
  <text x="862" y="154" fill="white" font-family="monospace" font-size="12">inxi -Fxz</text>
  <text x="862" y="174" fill="rgba(255,255,255,0.7)" font-family="monospace" font-size="11">System: Host: budgie</text>
  <text x="862" y="192" fill="rgba(255,255,255,0.7)" font-family="monospace" font-size="11">OS: Solus Budgie</text>
  <text x="862" y="210" fill="rgba(255,255,255,0.7)" font-family="monospace" font-size="11">DE: Budgie v10.9</text>
  <text x="862" y="334" fill="#6c5ce7" font-family="monospace" font-size="12">user@budgie:~$</text>
  <rect x="960" y="322" width="8" height="14" fill="#6c5ce7"/>
</svg>