<svg xmlns="http://www.w3.org/2000/svg" width="1280" height="720" viewBox="0 0 1280 720" role="img" aria-labelledby="de-title de-desc">
  <title id="de-title">Cinnamon desktop environment preview</title>
  <desc id="de-desc">Cinnamon with bottom panel, Nemo file manager, and Terminal.</desc>
  <defs>
  <linearGradient id="cin_bg" x1="0" y1="0" x2="0" y2="1">
    <stop offset="0%" stop-color="#1a2e1a"/>
    <stop offset="100%" stop-color="#2b3b2b"/>
  </linearGradient>
  </defs>
  <rect width="1280" height="720" fill="url(#cin_bg)"/>
  <rect y="680" width="1280" height="40" fill="#1a1a1a"/>
  <rect x="4" y="684" width="100" height="32" rx="4" fill="#4e9a06"/>
  <text x="54" y="704" text-anchor="middle" fill="white" font-family="sans-serif" font-size="13" font-weight="600">☰ Menu</text>
  <rect x="114" y="684" width="170" height="32" rx="3" fill="#3a3a3a"/>
  <text x="199" y="704" text-anchor="middle" fill="rgba(255,255,255,0.85)" font-family="sans-serif" font-size="11">Nemo — Home</text>
  <rect x="288" y="684" width="170" height="32" rx="3" fill="#2a2a2a"/>
  <text x="373" y="704" text-anchor="middle" fill="rgba(255,255,255,0.85)" font-family="sans-serif" font-size="11">Firefox</text>
  <rect x="462" y="684" width="170" height="32" rx="3" fill="#2a2a2a"/>
  <text x="547" y="704" text-anchor="middle" fill="rgba(255,255,255,0.85)" font-family="sans-serif" font-size="11">Terminal</text>
  <circle cx="1100" cy="700" r="5" fill="rgba(255,255,255,0.7)"/>
  <circle cx="1116" cy="700" r="5" fill="rgba(255,255,255,0.7)"/>
  <circle cx="1132" cy="700" r="5" fill="rgba(255,255,255,0.7)"/>
  <circle cx="1148" cy="700" r="5" fill="rgba(255,255,255,0.7)"/>
  <text x="1220" y="698" text-anchor="middle" fill="white" font-family="sans-serif" font-size="13">21:32</text>
  <text x="1220" y="712" text-anchor="middle" fill="rgba(255,255,255,0.6)" font-family="sans-serif" font-size="10">Mon Apr 27</text>
  <rect x="84" y="49" width="760" height="500" rx="8" fill="rgba(0,0,0,0.45)"/>
  <rect x="80" y="45" width="760" height="500" rx="8" fill="#2a2a2a"/>
  <rect x="80" y="45" width="760" height="30" rx="8" fill="#383838"/>
  <rect x="80" y="53" width="760" height="22" fill="#383838"/>
  <text x="460" y="65" text-anchor="middle" fill="rgba(255,255,255,0.9)" font-family="sans-serif" font-size="13">Home — Nemo</text>
  <circle cx="94" cy="60" r="6" fill="#cc0000"/>
  <circle cx="112" cy="60" r="6" fill="#febc2e"/>
  <circle cx="130" cy="60" r="6" fill="#4e9a06"/>
  <rect x="80" y="75" width="760" height="28" fill="#333333"/>
  <rect x="200" y="79" width="340" height="20" rx="4" fill="#1a1a1a"/>
  <text x="370" y="93" text-anchor="middle" fill="rgba(255,255,255,0.7)" font-family="sans-serif" font-size="11">/home/user</text>
  <rect x="80" y="103" width="160" height="442" fill="#2e2e2e"/>
  <text x="96" y="127" text-anchor="start" fill="rgba(255,255,255,0.45)" font-family="sans-serif" font-size="10">Bookmarks</text>
  <rect x="88" y="132" width="144" height="26" rx="3" fill="rgba(255,255,255,0.1)"/>
  <text x="100" y="150" text-anchor="start" fill="white" font-family="sans-serif" font-size="12">Home</text>
  <text x="100" y="174" text-anchor="start" fill="rgba(255,255,255,0.6)" font-family="sans-serif" font-size="12">Desktop</text>
  <text x="100" y="196" text-anchor="start" fill="rgba(255,255,255,0.6)" font-family="sans-serif" font-size="12">Documents</text>
  <text x="100" y="218" text-anchor="start" fill="rgba(255,255,255,0.6)" font-family="sans-serif" font-size="12">Downloads</text>
  <text x="100" y="240" text-anchor="start" fill="rgba(255,255,255,0.6)" font-family="sans-serif" font-size="12">Music</text>
  <text x="100" y="262" text-anchor="start" fill="rgba(255,255,255,0.6)" font-family="sans-serif" font-size="12">Pictures</text>
  <text x="100" y="284" text-anchor="start" fill="rgba(255,255,255,0.6)" font-family="sans-serif" font-size="12">Videos</text>
  <rect x="240" y="103" width="600" height="442" fill="#242424"/>
  <rect x="262" y="120" width="74" height="74" rx="6" fill="rgba(255,255,255,0.07)"/>
  <rect x="275" y="134" width="44" height="32" rx="3" fill="#4e9a06"/>
  <rect x="275" y="131" width="22" height="10" rx="3" fill="#4e9a06"/>
  <text x="299" y="208" text-anchor="middle" fill="rgba(255,255,255,0.7)" font-family="sans-serif" font-size="10">Desktop</text>
  <rect x="370" y="120" width="74" height="74" rx="6" fill="rgba(255,255,255,0.07)"/>
  <rect x="383" y="134" width="44" height="32" rx="3" fill="#4e9a06"/>
  <rect x="383" y="131" width="22" height="10" rx="3" fill="#4e9a06"/>
  <text x="407" y="208" text-anchor="middle" fill="rgba(255,255,255,0.7)" font-family="sans-serif" font-size="10">Documents</text>
  <rect x="478" y="120" width="74" height="74" rx="6" fill="rgba(255,255,255,0.07)"/>
  <rect x="491" y="134" width="44" height="32" rx="3" fill="#4e9a06"/>
  <rect x="491" y="131" width="22" height="10" rx="3" fill="#4e9a06"/>
  <text x="515" y="208" text-anchor="middle" fill="rgba(255,255,255,0.7)" font-family="sans-serif" font-size="10">Downloads</text>
  <rect x="586" y="120" width="74" height="74" rx="6" fill="rgba(255,255,255,0.07)"/>
  <rect x="599" y="134" width="44" height="32" rx="3" fill="#4e9a06"/>
  <rect x="599" y="131" width="22" height="10" rx="3" fill="#4e9a06"/>
  <text x="623" y="208" text-anchor="middle" fill="rgba(255,255,255,0.7)" font-family="sans-serif" font-size="10">Music</text>
  <rect x="694" y="120" width="74" height="74" rx="6" fill="rgba(255,255,255,0.07)"/>
  <rect x="707" y="134" width="44" height="32" rx="3" fill="#4e9a06"/>
  <rect x="707" y="131" width="22" height="10" rx="3" fill="#4e9a06"/>
  <text x="731" y="208" text-anchor="middle" fill="rgba(255,255,255,0.7)" font-family="sans-serif" font-size="10">Pictures</text>
  <rect x="262" y="224" width="74" height="74" rx="6" fill="rgba(255,255,255,0.07)"/>
  <rect x="275" y="238" width="44" height="32" rx="3" fill="#4e9a06"/>
  <rect x="275" y="235" width="22" height="10" rx="3" fill="#4e9a06"/>
  <text x="299" y="312" text-anchor="middle" fill="rgba(255,255,255,0.7)" font-family="sans-serif" font-size="10">Templates</text>
  <rect x="370" y="224" width="74" height="74" rx="6" fill="rgba(255,255,255,0.07)"/>
  <rect x="383" y="238" width="44" height="32" rx="3" fill="#4e9a06"/>
  <rect x="383" y="235" width="22" height="10" rx="3" fill="#4e9a06"/>
  <text x="407" y="312" text-anchor="middle" fill="rgba(255,255,255,0.7)" font-family="sans-serif" font-size="10">Videos</text>
  <rect x="478" y="224" width="74" height="74" rx="6" fill="rgba(255,255,255,0.07)"/>
  <rect x="491" y="238" width="44" height="32" rx="3" fill="#4e9a06"/>
  <rect x="491" y="235" width="22" height="10" rx="3" fill="#4e9a06"/>
  <text x="515" y="312" text-anchor="middle" fill="rgba(255,255,255,0.7)" font-family="sans-serif" font-size="10">notes.txt</text>
  <rect x="586" y="224" width="74" height="74" rx="6" fill="rgba(255,255,255,0.07)"/>
  <rect x="599" y="238" width="44" height="32" rx="3" fill="#4e9a06"/>
  <rect x="599" y="235" width="22" height="10" rx="3" fill="#4e9a06"/>
  <text x="623" y="312" text-anchor="middle" fill="rgba(255,255,255,0.7)" font-family="sans-serif" font-size="10">photo.jpg</text>
  <rect x="694" y="224" width="74" height="74" rx="6" fill="rgba(255,255,255,0.07)"/>
  <rect x="707" y="238" width="44" height="32" rx="3" fill="#4e9a06"/>
  <rect x="707" y="235" width="22" height="10" rx="3" fill="#4e9a06"/>
  <text x="731" y="312" text-anchor="middle" fill="rgba(255,255,255,0.7)" font-family="sans-serif" font-size="10">script.sh</text>
  <rect x="262" y="328" width="74" height="74" rx="6" fill="rgba(255,255,255,0.07)"/>
  <rect x="275" y="342" width="44" height="32" rx="3" fill="#4e9a06"/>
  <rect x="275" y="339" width="22" height="10" rx="3" fill="#4e9a06"/>
  <text x="299" y="416" text-anchor="middle" fill="rgba(255,255,255,0.7)" font-family="sans-serif" font-size="10">project</text>
  <rect x="370" y="328" width="74" height="74" rx="6" fill="rgba(255,255,255,0.07)"/>
  <rect x="383" y="342" width="44" height="32" rx="3" fill="#4e9a06"/>
  <rect x="383" y="339" width="22" height="10" rx="3" fill="#4e9a06"/>
  <text x="407" y="416" text-anchor="middle" fill="rgba(255,255,255,0.7)" font-family="sans-serif" font-size="10">backup</text>
  <rect x="478" y="328" width="74" height="74" rx="6" fill="rgba(255,255,255,0.07)"/>
  <rect x="491" y="342" width="44" height="32" rx="3" fill="#4e9a06"/>
  <rect x="491" y="339" width="22" height="10" rx="3" fill="#4e9a06"/>
  <rect x="586" y="328" width="74" height="74" rx="6" fill="rgba(255,255,255,0.07)"/>
  <rect x="599" y="342" width="44" height="32" rx="3" fill="#4e9a06"/>
  <rect x="599" y="339" width="22" height="10" rx="3" fill="#4e9a06"/>
  <rect x="694" y="328" width="74" height="74" rx="6" fill="rgba(255,255,255,0.07)"/>
  <rect x="707" y="342" width="44" height="32" rx="3" fill="#4e9a06"/>
  <rect x="707" y="339" width="22" height="10" rx="3" fill="#4e9a06"/>
  <rect x="874" y="94" width="340" height="280" rx="8" fill="rgba(0,0,0,0.45)"/>
  <rect x="870" y="90" width="340" height="280" rx="8" fill="#0d0d0d"/>
  <rect x="870" y="90" width="340" height="30" rx="8" fill="#1a1a1a"/>
  <rect x="870" y="98" width="340" height="22" fill="#1a1a1a"/>
  <text x="1040" y="110" text-anchor="middle" fill="rgba(255,255,255,0.9)" font-family="sans-serif" font-size="13">Terminal</text>
  <circle cx="884" cy="105" r="6" fill="#cc0000"/>
  <circle cx="902" cy="105" r="6" fill="#febc2e"/>
  <circle cx="920" cy="105" r="6" fill="#4e9a06"/>
  <text x="884" y="150" fill="#4e9a06" font-family="monospace" font-size="12">user@mint:~$</text>
  <text x="884" y="168" fill="white" font-family="monospace" font-size="12">neofetch</text>
  <text x="884" y="188" fill="#8ae234" font-family="monospace" font-size="11">Linux Mint 21.3 Cinnamon</text>
  <text x="884" y="206" fill="rgba(255,255,255,0.7)" font-family="monospace" font-size="11">Kernel: 6.5.0-25-generic</text>
  <text x="884" y="224" fill="rgba(255,255,255,0.7)" font-family="monospace" font-size="11">DE: Cinnamon 6.0.4</text>
  <text x="884" y="318" fill="#4e9a06" font-family="monospace" font-size="12">user@mint:~$</text>
  <rect x="982" y="306" width="8" height="14" fill="#4e9a06"/>
</svg>