<svg xmlns="http://www.w3.org/2000/svg" width="1280" height="720" viewBox="0 0 1280 720" role="img" aria-labelledby="de-title de-desc">
  <title id="de-title">GNOME desktop environment preview</title>
  <desc id="de-desc">GNOME Shell with Activities top bar, Nautilus file manager, and bottom dock.</desc>
  <defs>
  <radialGradient id="g_bg" cx="50%" cy="60%" r="75%">
    <stop offset="0%" stop-color="#4a3f6b"/>
    <stop offset="100%" stop-color="#1a1525"/>
  </radialGradient>
  </defs>
  <rect width="1280" height="720" fill="url(#g_bg)"/>
  <rect width="1280" height="32" fill="#3d3846"/>
  <text x="16" y="21" fill="white" font-family="sans-serif" font-size="13" font-weight="500">Activities</text>
  <text x="640" y="21" text-anchor="middle" fill="rgba(255,255,255,0.9)" font-family="sans-serif" font-size="12">Mon 27 Apr   21:32</text>
  <circle cx="1185" cy="16" r="5" fill="rgba(255,255,255,0.7)"/>
  <circle cx="1200" cy="16" r="5" fill="rgba(255,255,255,0.7)"/>
  <circle cx="1215" cy="16" r="5" fill="rgba(255,255,255,0.7)"/>
  <circle cx="1230" cy="16" r="5" fill="rgba(255,255,255,0.7)"/>
  <rect x="244" y="64" width="730" height="520" rx="8" fill="rgba(0,0,0,0.45)"/>
  <rect x="240" y="60" width="730" height="520" rx="8" fill="#1e1e1e"/>
  <rect x="240" y="60" width="730" height="30" rx="8" fill="#383038"/>
  <rect x="240" y="68" width="730" height="22" fill="#383038"/>
  <text x="605" y="80" text-anchor="middle" fill="rgba(255,255,255,0.9)" font-family="sans-serif" font-size="13">Home — Files</text>
  <circle cx="254" cy="75" r="6" fill="#ff5f57"/>
  <circle cx="272" cy="75" r="6" fill="#febc2e"/>
  <circle cx="290" cy="75" r="6" fill="#28c840"/>
  <rect x="240" y="90" width="175" height="490" fill="#2a2a2a"/>
  <text x="260" y="114" text-anchor="start" fill="rgba(255,255,255,0.45)" font-family="sans-serif" font-size="10">PLACES</text>
  <rect x="248" y="119" width="159" height="26" rx="5" fill="rgba(255,255,255,0.12)"/>
  <text x="267" y="137" text-anchor="start" fill="white" font-family="sans-serif" font-size="12">⌂ Home</text>
  <text x="267" y="161" text-anchor="start" fill="rgba(255,255,255,0.6)" font-family="sans-serif" font-size="12">  Documents</text>
  <text x="267" y="183" text-anchor="start" fill="rgba(255,255,255,0.6)" font-family="sans-serif" font-size="12">  Downloads</text>
  <text x="267" y="205" text-anchor="start" fill="rgba(255,255,255,0.6)" font-family="sans-serif" font-size="12">  Music</text>
  <text x="267" y="227" text-anchor="start" fill="rgba(255,255,255,0.6)" font-family="sans-serif" font-size="12">  Pictures</text>
  <text x="267" y="249" text-anchor="start" fill="rgba(255,255,255,0.6)" font-family="sans-serif" font-size="12">  Videos</text>
  <text x="260" y="279" text-anchor="start" fill="rgba(255,255,255,0.45)" font-family="sans-serif" font-size="10">DEVICES</text>
  <text x="267" y="299" text-anchor="start" fill="rgba(255,255,255,0.6)" font-family="sans-serif" font-size="12">  256 GB Drive</text>
  <rect x="415" y="90" width="555" height="490" fill="#242424"/>
  <rect x="435" y="108" width="72" height="72" rx="6" fill="rgba(255,255,255,0.07)"/>
  <rect x="448" y="122" width="44" height="32" rx="3" fill="#1c71d8"/>
  <rect x="448" y="119" width="22" height="10" rx="3" fill="#1c71d8"/>
  <text x="471" y="194" text-anchor="middle" fill="rgba(255,255,255,0.7)" font-family="sans-serif" font-size="10">Desktop</text>
  <rect x="539" y="108" width="72" height="72" rx="6" fill="rgba(255,255,255,0.07)"/>
  <rect x="552" y="122" width="44" height="32" rx="3" fill="#1c71d8"/>
  <rect x="552" y="119" width="22" height="10" rx="3" fill="#1c71d8"/>
  <text x="575" y="194" text-anchor="middle" fill="rgba(255,255,255,0.7)" font-family="sans-serif" font-size="10">Documents</text>
  <rect x="643" y="108" width="72" height="72" rx="6" fill="rgba(255,255,255,0.07)"/>
  <rect x="656" y="122" width="44" height="32" rx="3" fill="#1c71d8"/>
  <rect x="656" y="119" width="22" height="10" rx="3" fill="#1c71d8"/>
  <text x="679" y="194" text-anchor="middle" fill="rgba(255,255,255,0.7)" font-family="sans-serif" font-size="10">Downloads</text>
  <rect x="747" y="108" width="72" height="72" rx="6" fill="rgba(255,255,255,0.07)"/>
  <rect x="760" y="122" width="44" height="32" rx="3" fill="#1c71d8"/>
  <rect x="760" y="119" width="22" height="10" rx="3" fill="#1c71d8"/>
  <text x="783" y="194" text-anchor="middle" fill="rgba(255,255,255,0.7)" font-family="sans-serif" font-size="10">Music</text>
  <rect x="851" y="108" width="72" height="72" rx="6" fill="rgba(255,255,255,0.07)"/>
  <rect x="864" y="122" width="44" height="32" rx="3" fill="#1c71d8"/>
  <rect x="864" y="119" width="22" height="10" rx="3" fill="#1c71d8"/>
  <text x="887" y="194" text-anchor="middle" fill="rgba(255,255,255,0.7)" font-family="sans-serif" font-size="10">Pictures</text>
  <rect x="435" y="210" width="72" height="72" rx="6" fill="rgba(255,255,255,0.07)"/>
  <rect x="448" y="224" width="44" height="32" rx="3" fill="#1c71d8"/>
  <rect x="448" y="221" width="22" height="10" rx="3" fill="#1c71d8"/>
  <text x="471" y="296" text-anchor="middle" fill="rgba(255,255,255,0.7)" font-family="sans-serif" font-size="10">Templates</text>
  <rect x="539" y="210" width="72" height="72" rx="6" fill="rgba(255,255,255,0.07)"/>
  <rect x="552" y="224" width="44" height="32" rx="3" fill="#1c71d8"/>
  <rect x="552" y="221" width="22" height="10" rx="3" fill="#1c71d8"/>
  <text x="575" y="296" text-anchor="middle" fill="rgba(255,255,255,0.7)" font-family="sans-serif" font-size="10">Videos</text>
  <rect x="643" y="210" width="72" height="72" rx="6" fill="rgba(255,255,255,0.07)"/>
  <rect x="656" y="224" width="44" height="32" rx="3" fill="#1c71d8"/>
  <rect x="656" y="221" width="22" height="10" rx="3" fill="#1c71d8"/>
  <text x="679" y="296" text-anchor="middle" fill="rgba(255,255,255,0.7)" font-family="sans-serif" font-size="10">notes.txt</text>
  <rect x="747" y="210" width="72" height="72" rx="6" fill="rgba(255,255,255,0.07)"/>
  <rect x="760" y="224" width="44" height="32" rx="3" fill="#1c71d8"/>
  <rect x="760" y="221" width="22" height="10" rx="3" fill="#1c71d8"/>
  <text x="783" y="296" text-anchor="middle" fill="rgba(255,255,255,0.7)" font-family="sans-serif" font-size="10">photo.jpg</text>
  <rect x="851" y="210" width="72" height="72" rx="6" fill="rgba(255,255,255,0.07)"/>
  <rect x="864" y="224" width="44" height="32" rx="3" fill="#1c71d8"/>
  <rect x="864" y="221" width="22" height="10" rx="3" fill="#1c71d8"/>
  <text x="887" y="296" text-anchor="middle" fill="rgba(255,255,255,0.7)" font-family="sans-serif" font-size="10">script.sh</text>
  <rect x="435" y="312" width="72" height="72" rx="6" fill="rgba(255,255,255,0.07)"/>
  <rect x="448" y="326" width="44" height="32" rx="3" fill="#1c71d8"/>
  <rect x="448" y="323" width="22" height="10" rx="3" fill="#1c71d8"/>
  <text x="471" y="398" text-anchor="middle" fill="rgba(255,255,255,0.7)" font-family="sans-serif" font-size="10">project</text>
  <rect x="539" y="312" width="72" height="72" rx="6" fill="rgba(255,255,255,0.07)"/>
  <rect x="552" y="326" width="44" height="32" rx="3" fill="#1c71d8"/>
  <rect x="552" y="323" width="22" height="10" rx="3" fill="#1c71d8"/>
  <text x="575" y="398" text-anchor="middle" fill="rgba(255,255,255,0.7)" font-family="sans-serif" font-size="10">backup</text>
  <rect x="643" y="312" width="72" height="72" rx="6" fill="rgba(255,255,255,0.07)"/>
  <rect x="656" y="326" width="44" height="32" rx="3" fill="#1c71d8"/>
  <rect x="656" y="323" width="22" height="10" rx="3" fill="#1c71d8"/>
  <rect x="747" y="312" width="72" height="72" rx="6" fill="rgba(255,255,255,0.07)"/>
  <rect x="760" y="326" width="44" height="32" rx="3" fill="#1c71d8"/>
  <rect x="760" y="323" width="22" height="10" rx="3" fill="#1c71d8"/>
  <rect x="851" y="312" width="72" height="72" rx="6" fill="rgba(255,255,255,0.07)"/>
  <rect x="864" y="326" width="44" height="32" rx="3" fill="#1c71d8"/>
  <rect x="864" y="323" width="22" height="10" rx="3" fill="#1c71d8"/>
  <rect x="380" y="683" width="520" height="32" rx="16" fill="rgba(61,56,70,0.92)"/>
  <circle cx="406" cy="699" r="11" fill="#e01b24"/>
  <circle cx="437" cy="699" r="11" fill="#1c71d8"/>
  <circle cx="468" cy="699" r="11" fill="#ff7800"/>
  <circle cx="499" cy="699" r="11" fill="#f6d32d"/>
  <circle cx="530" cy="699" r="11" fill="#33d17a"/>
  <circle cx="561" cy="699" r="11" fill="#9141ac"/>
  <circle cx="592" cy="699" r="11" fill="#26a269"/>
  <circle cx="623" cy="699" r="11" fill="#3d5a80"/>
  <circle cx="654" cy="699" r="11" fill="#c64600"/>
  <circle cx="685" cy="699" r="11" fill="#613583"/>
  <circle cx="716" cy="699" r="11" fill="#1a5fb4"/>
  <circle cx="747" cy="699" r="11" fill="#2ec27e"/>
  <circle cx="778" cy="699" r="11" fill="#e66100"/>
  <circle cx="809" cy="699" r="11" fill="#813d9c"/>
  <circle cx="840" cy="699" r="11" fill="#e01b24"/>
  <circle cx="871" cy="699" r="11" fill="#1c71d8"/>
  <circle cx="406" cy="716" r="2" fill="rgba(255,255,255,0.6)"/>
</svg>