<svg xmlns="http://www.w3.org/2000/svg" width="1280" height="720" viewBox="0 0 1280 720" role="img" aria-labelledby="de-title de-desc">
  <title id="de-title">KDE Plasma desktop environment preview</title>
  <desc id="de-desc">KDE Plasma with bottom panel, Dolphin file manager, and Konsole terminal.</desc>
  <defs>
  <linearGradient id="kde_bg" x1="0" y1="0" x2="0" y2="1">
    <stop offset="0%" stop-color="#1b2838"/>
    <stop offset="100%" stop-color="#2a4a6b"/>
  </linearGradient>
  <linearGradient id="kde_win" x1="0" y1="0" x2="1" y2="0">
    <stop offset="0%" stop-color="#3daee9"/>
    <stop offset="100%" stop-color="#2980b9"/>
  </linearGradient>
  </defs>
  <rect width="1280" height="720" fill="url(#kde_bg)"/>
  <rect y="672" width="1280" height="48" fill="#31363b"/>
  <rect x="4" y="676" width="40" height="40" rx="5" fill="#1d99f3"/>
  <text x="24" y="703" text-anchor="middle" fill="white" font-family="sans-serif" font-size="20" font-weight="700">K</text>
  <rect x="54" y="679" width="160" height="34" rx="3" fill="#3a4554"/>
  <text x="134" y="700" text-anchor="middle" fill="rgba(255,255,255,0.85)" font-family="sans-serif" font-size="11">Dolphin — Files</text>
  <rect x="218" y="679" width="160" height="34" rx="3" fill="#2a3444"/>
  <text x="298" y="700" text-anchor="middle" fill="rgba(255,255,255,0.85)" font-family="sans-serif" font-size="11">Firefox — Home</text>
  <rect x="382" y="679" width="160" height="34" rx="3" fill="#2a3444"/>
  <text x="462" y="700" text-anchor="middle" fill="rgba(255,255,255,0.85)" font-family="sans-serif" font-size="11">Konsole</text>
  <circle cx="1080" cy="695" r="5" fill="rgba(255,255,255,0.7)"/>
  <circle cx="1096" cy="695" r="5" fill="rgba(255,255,255,0.7)"/>
  <circle cx="1112" cy="695" r="5" fill="rgba(255,255,255,0.7)"/>
  <circle cx="1128" cy="695" r="5" fill="rgba(255,255,255,0.7)"/>
  <text x="1200" y="694" text-anchor="middle" fill="white" font-family="sans-serif" font-size="13">21:32</text>
  <text x="1200" y="708" text-anchor="middle" fill="rgba(255,255,255,0.65)" font-family="sans-serif" font-size="10">27 Apr 2026</text>
  <rect x="64" y="52" width="780" height="490" rx="8" fill="rgba(0,0,0,0.45)"/>
  <rect x="60" y="48" width="780" height="490" rx="8" fill="#1e2530"/>
  <rect x="60" y="48" width="780" height="30" rx="8" fill="#4a5568"/>
  <rect x="60" y="56" width="780" height="22" fill="#4a5568"/>
  <text x="450" y="68" text-anchor="middle" fill="rgba(255,255,255,0.9)" font-family="sans-serif" font-size="13">Dolphin — /home/user</text>
  <circle cx="826" cy="63" r="6" fill="#ed1515"/>
  <circle cx="808" cy="63" r="6" fill="#febc2e"/>
  <circle cx="790" cy="63" r="6" fill="#1d99f3"/>
  <rect x="60" y="78" width="165" height="460" fill="#232629"/>
  <text x="78" y="104" text-anchor="start" fill="rgba(255,255,255,0.45)" font-family="sans-serif" font-size="10">Places</text>
  <rect x="68" y="109" width="149" height="26" rx="4" fill="rgba(255,255,255,0.1)"/>
  <text x="84" y="127" text-anchor="start" fill="white" font-family="sans-serif" font-size="12">⌂ Home</text>
  <text x="84" y="151" text-anchor="start" fill="rgba(255,255,255,0.6)" font-family="sans-serif" font-size="12">  Desktop</text>
  <text x="84" y="173" text-anchor="start" fill="rgba(255,255,255,0.6)" font-family="sans-serif" font-size="12">  Documents</text>
  <text x="84" y="195" text-anchor="start" fill="rgba(255,255,255,0.6)" font-family="sans-serif" font-size="12">  Downloads</text>
  <text x="84" y="217" text-anchor="start" fill="rgba(255,255,255,0.6)" font-family="sans-serif" font-size="12">  Music</text>
  <text x="84" y="239" text-anchor="start" fill="rgba(255,255,255,0.6)" font-family="sans-serif" font-size="12">  Pictures</text>
  <text x="78" y="269" text-anchor="start" fill="rgba(255,255,255,0.45)" font-family="sans-serif" font-size="10">Devices</text>
  <text x="84" y="289" text-anchor="start" fill="rgba(255,255,255,0.6)" font-family="sans-serif" font-size="12">  sdb1 (250GB)</text>
  <rect x="225" y="78" width="615" height="460" fill="#1a1e25"/>
  <rect x="250" y="96" width="76" height="76" rx="6" fill="rgba(255,255,255,0.07)"/>
  <rect x="263" y="110" width="44" height="32" rx="3" fill="#1d99f3"/>
  <rect x="263" y="107" width="22" height="10" rx="3" fill="#1d99f3"/>
  <text x="288" y="186" text-anchor="middle" fill="rgba(255,255,255,0.7)" font-family="sans-serif" font-size="10">Desktop</text>
  <rect x="360" y="96" width="76" height="76" rx="6" fill="rgba(255,255,255,0.07)"/>
  <rect x="373" y="110" width="44" height="32" rx="3" fill="#1d99f3"/>
  <rect x="373" y="107" width="22" height="10" rx="3" fill="#1d99f3"/>
  <text x="398" y="186" text-anchor="middle" fill="rgba(255,255,255,0.7)" font-family="sans-serif" font-size="10">Documents</text>
  <rect x="470" y="96" width="76" height="76" rx="6" fill="rgba(255,255,255,0.07)"/>
  <rect x="483" y="110" width="44" height="32" rx="3" fill="#1d99f3"/>
  <rect x="483" y="107" width="22" height="10" rx="3" fill="#1d99f3"/>
  <text x="508" y="186" text-anchor="middle" fill="rgba(255,255,255,0.7)" font-family="sans-serif" font-size="10">Downloads</text>
  <rect x="580" y="96" width="76" height="76" rx="6" fill="rgba(255,255,255,0.07)"/>
  <rect x="593" y="110" width="44" height="32" rx="3" fill="#1d99f3"/>
  <rect x="593" y="107" width="22" height="10" rx="3" fill="#1d99f3"/>
  <text x="618" y="186" text-anchor="middle" fill="rgba(255,255,255,0.7)" font-family="sans-serif" font-size="10">Music</text>
  <rect x="690" y="96" width="76" height="76" rx="6" fill="rgba(255,255,255,0.07)"/>
  <rect x="703" y="110" width="44" height="32" rx="3" fill="#1d99f3"/>
  <rect x="703" y="107" width="22" height="10" rx="3" fill="#1d99f3"/>
  <text x="728" y="186" text-anchor="middle" fill="rgba(255,255,255,0.7)" font-family="sans-serif" font-size="10">Pictures</text>
  <rect x="250" y="202" width="76" height="76" rx="6" fill="rgba(255,255,255,0.07)"/>
  <rect x="263" y="216" width="44" height="32" rx="3" fill="#1d99f3"/>
  <rect x="263" y="213" width="22" height="10" rx="3" fill="#1d99f3"/>
  <text x="288" y="292" text-anchor="middle" fill="rgba(255,255,255,0.7)" font-family="sans-serif" font-size="10">Templates</text>
  <rect x="360" y="202" width="76" height="76" rx="6" fill="rgba(255,255,255,0.07)"/>
  <rect x="373" y="216" width="44" height="32" rx="3" fill="#1d99f3"/>
  <rect x="373" y="213" width="22" height="10" rx="3" fill="#1d99f3"/>
  <text x="398" y="292" text-anchor="middle" fill="rgba(255,255,255,0.7)" font-family="sans-serif" font-size="10">Videos</text>
  <rect x="470" y="202" width="76" height="76" rx="6" fill="rgba(255,255,255,0.07)"/>
  <rect x="483" y="216" width="44" height="32" rx="3" fill="#1d99f3"/>
  <rect x="483" y="213" width="22" height="10" rx="3" fill="#1d99f3"/>
  <text x="508" y="292" text-anchor="middle" fill="rgba(255,255,255,0.7)" font-family="sans-serif" font-size="10">notes.txt</text>
  <rect x="580" y="202" width="76" height="76" rx="6" fill="rgba(255,255,255,0.07)"/>
  <rect x="593" y="216" width="44" height="32" rx="3" fill="#1d99f3"/>
  <rect x="593" y="213" width="22" height="10" rx="3" fill="#1d99f3"/>
  <text x="618" y="292" text-anchor="middle" fill="rgba(255,255,255,0.7)" font-family="sans-serif" font-size="10">photo.jpg</text>
  <rect x="690" y="202" width="76" height="76" rx="6" fill="rgba(255,255,255,0.07)"/>
  <rect x="703" y="216" width="44" height="32" rx="3" fill="#1d99f3"/>
  <rect x="703" y="213" width="22" height="10" rx="3" fill="#1d99f3"/>
  <text x="728" y="292" text-anchor="middle" fill="rgba(255,255,255,0.7)" font-family="sans-serif" font-size="10">script.sh</text>
  <rect x="250" y="308" width="76" height="76" rx="6" fill="rgba(255,255,255,0.07)"/>
  <rect x="263" y="322" width="44" height="32" rx="3" fill="#1d99f3"/>
  <rect x="263" y="319" width="22" height="10" rx="3" fill="#1d99f3"/>
  <text x="288" y="398" text-anchor="middle" fill="rgba(255,255,255,0.7)" font-family="sans-serif" font-size="10">project</text>
  <rect x="360" y="308" width="76" height="76" rx="6" fill="rgba(255,255,255,0.07)"/>
  <rect x="373" y="322" width="44" height="32" rx="3" fill="#1d99f3"/>
  <rect x="373" y="319" width="22" height="10" rx="3" fill="#1d99f3"/>
  <text x="398" y="398" text-anchor="middle" fill="rgba(255,255,255,0.7)" font-family="sans-serif" font-size="10">backup</text>
  <rect x="470" y="308" width="76" height="76" rx="6" fill="rgba(255,255,255,0.07)"/>
  <rect x="483" y="322" width="44" height="32" rx="3" fill="#1d99f3"/>
  <rect x="483" y="319" width="22" height="10" rx="3" fill="#1d99f3"/>
  <rect x="580" y="308" width="76" height="76" rx="6" fill="rgba(255,255,255,0.07)"/>
  <rect x="593" y="322" width="44" height="32" rx="3" fill="#1d99f3"/>
  <rect x="593" y="319" width="22" height="10" rx="3" fill="#1d99f3"/>
  <rect x="690" y="308" width="76" height="76" rx="6" fill="rgba(255,255,255,0.07)"/>
  <rect x="703" y="322" width="44" height="32" rx="3" fill="#1d99f3"/>
  <rect x="703" y="319" width="22" height="10" rx="3" fill="#1d99f3"/>
  <rect x="874" y="104" width="360" height="300" rx="8" fill="rgba(0,0,0,0.45)"/>
  <rect x="870" y="100" width="360" height="300" rx="8" fill="#1a1a1a"/>
  <rect x="870" y="100" width="360" height="30" rx="8" fill="#2b2b2b"/>
  <rect x="870" y="108" width="360" height="22" fill="#2b2b2b"/>
  <text x="1050" y="120" text-anchor="middle" fill="rgba(255,255,255,0.9)" font-family="sans-serif" font-size="13">Konsole</text>
  <circle cx="1216" cy="115" r="6" fill="#ed1515"/>
  <circle cx="1198" cy="115" r="6" fill="#febc2e"/>
  <circle cx="1180" cy="115" r="6" fill="#1d99f3"/>
  <text x="885" y="155" fill="#4ec9b0" font-family="monospace" font-size="12">user@host:~$</text>
  <text x="885" y="173" fill="rgba(255,255,255,0.7)" font-family="monospace" font-size="12">ls -la</text>
  <text x="885" y="192" fill="#4ec9b0" font-family="monospace" font-size="11">drwxr-xr-x  Documents</text>
  <text x="885" y="210" fill="#4ec9b0" font-family="monospace" font-size="11">drwxr-xr-x  Downloads</text>
  <text x="885" y="228" fill="#4ec9b0" font-family="monospace" font-size="11">drwxr-xr-x  Pictures</text>
  <text x="885" y="246" fill="#ce9178" font-family="monospace" font-size="11">-rw-r--r--  notes.txt</text>
  <text x="885" y="340" fill="#4ec9b0" font-family="monospace" font-size="12">user@host:~$</text>
  <rect x="983" y="328" width="8" height="14" fill="#4ec9b0"/>
</svg>