<svg xmlns="http://www.w3.org/2000/svg" width="1280" height="720" viewBox="0 0 1280 720" role="img" aria-labelledby="de-title de-desc">
  <title id="de-title">labwc Wayland compositor preview</title>
  <desc id="de-desc">labwc floating Wayland compositor with Thunar, foot terminal, and desktop context menu.</desc>
  <defs>
  <linearGradient id="labwc_bg" x1="0" y1="0" x2="0" y2="1">
    <stop offset="0%" stop-color="#2b2d3a"/>
    <stop offset="100%" stop-color="#1e2030"/>
  </linearGradient>
  </defs>
  <rect width="1280" height="720" fill="url(#labwc_bg)"/>
  <rect y="692" width="1280" height="28" fill="#1a1c28"/>
  <rect x="2" y="694" width="80" height="24" rx="3" fill="#2e3248"/>
  <text x="42" y="710" text-anchor="middle" fill="white" font-family="sans-serif" font-size="12">☰ Apps</text>
  <rect x="92" y="694" width="155" height="24" rx="3" fill="#2e3248"/>
  <text x="169" y="710" text-anchor="middle" fill="rgba(255,255,255,0.85)" font-family="sans-serif" font-size="11">Thunar — /home</text>
  <rect x="251" y="694" width="155" height="24" rx="3" fill="#1a1c28"/>
  <text x="328" y="710" text-anchor="middle" fill="rgba(255,255,255,0.85)" font-family="sans-serif" font-size="11">foot</text>
  <rect x="410" y="694" width="155" height="24" rx="3" fill="#1a1c28"/>
  <text x="487" y="710" text-anchor="middle" fill="rgba(255,255,255,0.85)" font-family="sans-serif" font-size="11">geany</text>
  <circle cx="1100" cy="705" r="5" fill="rgba(255,255,255,0.7)"/>
  <circle cx="1116" cy="705" r="5" fill="rgba(255,255,255,0.7)"/>
  <circle cx="1132" cy="705" r="5" fill="rgba(255,255,255,0.7)"/>
  <text x="1220" y="705" text-anchor="middle" fill="white" font-family="sans-serif" font-size="12">21:32 Mon</text>
  <rect x="74" y="50" width="700" height="480" rx="8" fill="rgba(0,0,0,0.45)"/>
  <rect x="70" y="46" width="700" height="480" rx="8" fill="#1c1e2c"/>
  <rect x="70" y="46" width="700" height="30" rx="8" fill="#2e3248"/>
  <rect x="70" y="54" width="700" height="22" fill="#2e3248"/>
  <text x="420" y="66" text-anchor="middle" fill="rgba(255,255,255,0.9)" font-family="sans-serif" font-size="13">Thunar — File Manager</text>
  <circle cx="84" cy="61" r="6" fill="#cc4444"/>
  <circle cx="102" cy="61" r="6" fill="#febc2e"/>
  <circle cx="120" cy="61" r="6" fill="#44aa44"/>
  <rect x="70" y="76" width="700" height="24" fill="#252738"/>
  <rect x="195" y="79" width="260" height="16" rx="2" fill="#16182a"/>
  <text x="325" y="91" text-anchor="middle" fill="rgba(255,255,255,0.65)" font-family="sans-serif" font-size="11">/home/user</text>
  <rect x="70" y="100" width="155" height="426" fill="#181a28"/>
  <text x="84" y="122" text-anchor="start" fill="rgba(255,255,255,0.45)" font-family="sans-serif" font-size="10">Places</text>
  <rect x="76" y="127" width="141" height="22" rx="2" fill="rgba(255,255,255,0.1)"/>
  <text x="87" y="143" text-anchor="start" fill="white" font-family="sans-serif" font-size="12">Home</text>
  <text x="87" y="163" text-anchor="start" fill="rgba(255,255,255,0.6)" font-family="sans-serif" font-size="12">Desktop</text>
  <text x="87" y="183" text-anchor="start" fill="rgba(255,255,255,0.6)" font-family="sans-serif" font-size="12">Documents</text>
  <text x="87" y="203" text-anchor="start" fill="rgba(255,255,255,0.6)" font-family="sans-serif" font-size="12">Downloads</text>
  <text x="87" y="223" text-anchor="start" fill="rgba(255,255,255,0.6)" font-family="sans-serif" font-size="12">Music</text>
  <text x="87" y="243" text-anchor="start" fill="rgba(255,255,255,0.6)" font-family="sans-serif" font-size="12">Pictures</text>
  <text x="84" y="270" text-anchor="start" fill="rgba(255,255,255,0.45)" font-family="sans-serif" font-size="10">Devices</text>
  <text x="87" y="290" text-anchor="start" fill="rgba(255,255,255,0.6)" font-family="sans-serif" font-size="12">sda1</text>
  <rect x="225" y="100" width="545" height="426" fill="#14162a"/>
  <rect x="244" y="116" width="68" height="68" rx="6" fill="rgba(255,255,255,0.07)"/>
  <rect x="257" y="130" width="44" height="32" rx="3" fill="#5e7ec0"/>
  <rect x="257" y="127" width="22" height="10" rx="3" fill="#5e7ec0"/>
  <text x="278" y="198" text-anchor="middle" fill="rgba(255,255,255,0.7)" font-family="sans-serif" font-size="10">Desktop</text>
  <rect x="344" y="116" width="68" height="68" rx="6" fill="rgba(255,255,255,0.07)"/>
  <rect x="357" y="130" width="44" height="32" rx="3" fill="#5e7ec0"/>
  <rect x="357" y="127" width="22" height="10" rx="3" fill="#5e7ec0"/>
  <text x="378" y="198" text-anchor="middle" fill="rgba(255,255,255,0.7)" font-family="sans-serif" font-size="10">Documents</text>
  <rect x="444" y="116" width="68" height="68" rx="6" fill="rgba(255,255,255,0.07)"/>
  <rect x="457" y="130" width="44" height="32" rx="3" fill="#5e7ec0"/>
  <rect x="457" y="127" width="22" height="10" rx="3" fill="#5e7ec0"/>
  <text x="478" y="198" text-anchor="middle" fill="rgba(255,255,255,0.7)" font-family="sans-serif" font-size="10">Downloads</text>
  <rect x="544" y="116" width="68" height="68" rx="6" fill="rgba(255,255,255,0.07)"/>
  <rect x="557" y="130" width="44" height="32" rx="3" fill="#5e7ec0"/>
  <rect x="557" y="127" width="22" height="10" rx="3" fill="#5e7ec0"/>
  <text x="578" y="198" text-anchor="middle" fill="rgba(255,255,255,0.7)" font-family="sans-serif" font-size="10">Music</text>
  <rect x="644" y="116" width="68" height="68" rx="6" fill="rgba(255,255,255,0.07)"/>
  <rect x="657" y="130" width="44" height="32" rx="3" fill="#5e7ec0"/>
  <rect x="657" y="127" width="22" height="10" rx="3" fill="#5e7ec0"/>
  <text x="678" y="198" text-anchor="middle" fill="rgba(255,255,255,0.7)" font-family="sans-serif" font-size="10">Pictures</text>
  <rect x="244" y="214" width="68" height="68" rx="6" fill="rgba(255,255,255,0.07)"/>
  <rect x="257" y="228" width="44" height="32" rx="3" fill="#5e7ec0"/>
  <rect x="257" y="225" width="22" height="10" rx="3" fill="#5e7ec0"/>
  <text x="278" y="296" text-anchor="middle" fill="rgba(255,255,255,0.7)" font-family="sans-serif" font-size="10">Templates</text>
  <rect x="344" y="214" width="68" height="68" rx="6" fill="rgba(255,255,255,0.07)"/>
  <rect x="357" y="228" width="44" height="32" rx="3" fill="#5e7ec0"/>
  <rect x="357" y="225" width="22" height="10" rx="3" fill="#5e7ec0"/>
  <text x="378" y="296" text-anchor="middle" fill="rgba(255,255,255,0.7)" font-family="sans-serif" font-size="10">Videos</text>
  <rect x="444" y="214" width="68" height="68" rx="6" fill="rgba(255,255,255,0.07)"/>
  <rect x="457" y="228" width="44" height="32" rx="3" fill="#5e7ec0"/>
  <rect x="457" y="225" width="22" height="10" rx="3" fill="#5e7ec0"/>
  <text x="478" y="296" text-anchor="middle" fill="rgba(255,255,255,0.7)" font-family="sans-serif" font-size="10">notes.txt</text>
  <rect x="544" y="214" width="68" height="68" rx="6" fill="rgba(255,255,255,0.07)"/>
  <rect x="557" y="228" width="44" height="32" rx="3" fill="#5e7ec0"/>
  <rect x="557" y="225" width="22" height="10" rx="3" fill="#5e7ec0"/>
  <text x="578" y="296" text-anchor="middle" fill="rgba(255,255,255,0.7)" font-family="sans-serif" font-size="10">photo.jpg</text>
  <rect x="644" y="214" width="68" height="68" rx="6" fill="rgba(255,255,255,0.07)"/>
  <rect x="657" y="228" width="44" height="32" rx="3" fill="#5e7ec0"/>
  <rect x="657" y="225" width="22" height="10" rx="3" fill="#5e7ec0"/>
  <text x="678" y="296" text-anchor="middle" fill="rgba(255,255,255,0.7)" font-family="sans-serif" font-size="10">script.sh</text>
  <rect x="244" y="312" width="68" height="68" rx="6" fill="rgba(255,255,255,0.07)"/>
  <rect x="257" y="326" width="44" height="32" rx="3" fill="#5e7ec0"/>
  <rect x="257" y="323" width="22" height="10" rx="3" fill="#5e7ec0"/>
  <text x="278" y="394" text-anchor="middle" fill="rgba(255,255,255,0.7)" font-family="sans-serif" font-size="10">project</text>
  <rect x="344" y="312" width="68" height="68" rx="6" fill="rgba(255,255,255,0.07)"/>
  <rect x="357" y="326" width="44" height="32" rx="3" fill="#5e7ec0"/>
  <rect x="357" y="323" width="22" height="10" rx="3" fill="#5e7ec0"/>
  <text x="378" y="394" text-anchor="middle" fill="rgba(255,255,255,0.7)" font-family="sans-serif" font-size="10">backup</text>
  <rect x="444" y="312" width="68" height="68" rx="6" fill="rgba(255,255,255,0.07)"/>
  <rect x="457" y="326" width="44" height="32" rx="3" fill="#5e7ec0"/>
  <rect x="457" y="323" width="22" height="10" rx="3" fill="#5e7ec0"/>
  <rect x="544" y="312" width="68" height="68" rx="6" fill="rgba(255,255,255,0.07)"/>
  <rect x="557" y="326" width="44" height="32" rx="3" fill="#5e7ec0"/>
  <rect x="557" y="323" width="22" height="10" rx="3" fill="#5e7ec0"/>
  <rect x="644" y="312" width="68" height="68" rx="6" fill="rgba(255,255,255,0.07)"/>
  <rect x="657" y="326" width="44" height="32" rx="3" fill="#5e7ec0"/>
  <rect x="657" y="323" width="22" height="10" rx="3" fill="#5e7ec0"/>
  <rect x="794" y="94" width="420" height="300" rx="8" fill="rgba(0,0,0,0.45)"/>
  <rect x="790" y="90" width="420" height="300" rx="8" fill="#0d0f1a"/>
  <rect x="790" y="90" width="420" height="30" rx="8" fill="#252738"/>
  <rect x="790" y="98" width="420" height="22" fill="#252738"/>
  <text x="1000" y="110" text-anchor="middle" fill="rgba(255,255,255,0.9)" font-family="sans-serif" font-size="13">foot</text>
  <circle cx="804" cy="105" r="6" fill="#cc4444"/>
  <circle cx="822" cy="105" r="6" fill="#febc2e"/>
  <circle cx="840" cy="105" r="6" fill="#44aa44"/>
  <text x="804" y="150" fill="#7aa2f7" font-family="monospace" font-size="12">user@labwc:~$</text>
  <text x="804" y="168" fill="white" font-family="monospace" font-size="12">labwc --version</text>
  <text x="804" y="188" fill="rgba(255,255,255,0.7)" font-family="monospace" font-size="11">labwc 0.7.1</text>
  <text x="804" y="206" fill="rgba(255,255,255,0.7)" font-family="monospace" font-size="11">Wayland compositor</text>
  <text x="804" y="224" fill="rgba(255,255,255,0.7)" font-family="monospace" font-size="11">Based on wlroots</text>
  <text x="804" y="356" fill="#7aa2f7" font-family="monospace" font-size="12">user@labwc:~$</text>
  <rect x="902" y="344" width="8" height="14" fill="#7aa2f7"/>
  <rect x="601" y="401" width="158" height="158" rx="3" fill="#252738" stroke="#3a3d58" stroke-width="1"/>
  <text x="615" y="421" text-anchor="start" fill="rgba(255,255,255,0.85)" font-family="sans-serif" font-size="12">New Folder</text>
  <rect x="602" y="427" width="156" height="1" fill="rgba(255,255,255,0.1)"/>
  <text x="615" y="444" text-anchor="start" fill="rgba(255,255,255,0.85)" font-family="sans-serif" font-size="12">New File</text>
  <rect x="602" y="450" width="156" height="1" fill="rgba(255,255,255,0.1)"/>
  <text x="615" y="467" text-anchor="start" fill="rgba(255,255,255,0.85)" font-family="sans-serif" font-size="12">Open Terminal</text>
  <rect x="602" y="473" width="156" height="1" fill="rgba(255,255,255,0.1)"/>
  <text x="615" y="490" text-anchor="start" fill="rgba(255,255,255,0.85)" font-family="sans-serif" font-size="12">Desktop Settings</text>
  <rect x="602" y="496" width="156" height="1" fill="rgba(255,255,255,0.1)"/>
  <text x="615" y="513" text-anchor="start" fill="rgba(255,255,255,0.85)" font-family="sans-serif" font-size="12">Reconfigure</text>
  <rect x="602" y="519" width="156" height="1" fill="rgba(255,255,255,0.1)"/>
  <text x="615" y="536" text-anchor="start" fill="rgba(255,255,255,0.85)" font-family="sans-serif" font-size="12">Exit</text>
  <rect x="601" y="427" width="158" height="22" rx="0" fill="rgba(74,90,122,0.35)"/>
</svg>