<svg xmlns="http://www.w3.org/2000/svg" width="1280" height="720" viewBox="0 0 1280 720" role="img" aria-labelledby="de-title de-desc">
  <title id="de-title">LXQt desktop environment preview</title>
  <desc id="de-desc">LXQt with bottom panel, PCManFM-Qt file manager, and QTerminal.</desc>
  <defs>
  <linearGradient id="lxqt_bg" x1="0" y1="0" x2="0" y2="1">
    <stop offset="0%" stop-color="#1a1b26"/>
    <stop offset="100%" stop-color="#252a3a"/>
  </linearGradient>
  </defs>
  <rect width="1280" height="720" fill="url(#lxqt_bg)"/>
  <rect y="692" width="1280" height="28" fill="#2f3247"/>
  <rect x="2" y="694" width="80" height="24" rx="3" fill="#364a6a"/>
  <text x="42" y="710" text-anchor="middle" fill="white" font-family="sans-serif" font-size="12">☰ Start</text>
  <rect x="92" y="694" width="155" height="24" rx="3" fill="#3a4a6a"/>
  <text x="169" y="710" text-anchor="middle" fill="rgba(255,255,255,0.85)" font-family="sans-serif" font-size="11">PCManFM-Qt</text>
  <rect x="251" y="694" width="155" height="24" rx="3" fill="#2a3450"/>
  <text x="328" y="710" text-anchor="middle" fill="rgba(255,255,255,0.85)" font-family="sans-serif" font-size="11">QTerminal</text>
  <rect x="410" y="694" width="155" height="24" rx="3" fill="#2a3450"/>
  <text x="487" y="710" text-anchor="middle" fill="rgba(255,255,255,0.85)" font-family="sans-serif" font-size="11">Featherpad</text>
  <circle cx="1090" cy="705" r="5" fill="rgba(255,255,255,0.7)"/>
  <circle cx="1106" cy="705" r="5" fill="rgba(255,255,255,0.7)"/>
  <circle cx="1122" cy="705" r="5" fill="rgba(255,255,255,0.7)"/>
  <circle cx="1138" cy="705" r="5" fill="rgba(255,255,255,0.7)"/>
  <text x="1220" y="705" text-anchor="middle" fill="white" font-family="sans-serif" font-size="12">21:32 Mon</text>
  <rect x="74" y="46" width="755" height="510" rx="8" fill="rgba(0,0,0,0.45)"/>
  <rect x="70" y="42" width="755" height="510" rx="8" fill="#1e2336"/>
  <rect x="70" y="42" width="755" height="30" rx="8" fill="#364a6a"/>
  <rect x="70" y="50" width="755" height="22" fill="#364a6a"/>
  <text x="447" y="62" text-anchor="middle" fill="rgba(255,255,255,0.9)" font-family="sans-serif" font-size="13">PCManFM-Qt — /home/user</text>
  <circle cx="811" cy="57" r="6" fill="#ff5f5f"/>
  <circle cx="793" cy="57" r="6" fill="#febc2e"/>
  <circle cx="775" cy="57" r="6" fill="#5faf5f"/>
  <rect x="70" y="72" width="755" height="26" fill="#2a3a52"/>
  <rect x="200" y="75" width="280" height="18" rx="3" fill="#1a2430"/>
  <text x="340" y="88" text-anchor="middle" fill="rgba(255,255,255,0.7)" font-family="sans-serif" font-size="11">/home/user</text>
  <rect x="70" y="98" width="160" height="454" fill="#1e2840"/>
  <text x="86" y="120" text-anchor="start" fill="rgba(255,255,255,0.45)" font-family="sans-serif" font-size="10">Places</text>
  <rect x="77" y="125" width="145" height="24" rx="3" fill="rgba(255,255,255,0.1)"/>
  <text x="90" y="142" text-anchor="start" fill="white" font-family="sans-serif" font-size="12">Home</text>
  <text x="90" y="164" text-anchor="start" fill="rgba(255,255,255,0.6)" font-family="sans-serif" font-size="12">Desktop</text>
  <text x="90" y="186" text-anchor="start" fill="rgba(255,255,255,0.6)" font-family="sans-serif" font-size="12">Documents</text>
  <text x="90" y="208" text-anchor="start" fill="rgba(255,255,255,0.6)" font-family="sans-serif" font-size="12">Downloads</text>
  <text x="90" y="230" text-anchor="start" fill="rgba(255,255,255,0.6)" font-family="sans-serif" font-size="12">Music</text>
  <text x="90" y="252" text-anchor="start" fill="rgba(255,255,255,0.6)" font-family="sans-serif" font-size="12">Pictures</text>
  <text x="86" y="282" text-anchor="start" fill="rgba(255,255,255,0.45)" font-family="sans-serif" font-size="10">Devices</text>
  <text x="90" y="302" text-anchor="start" fill="rgba(255,255,255,0.6)" font-family="sans-serif" font-size="12">sdb1</text>
  <rect x="230" y="98" width="595" height="454" fill="#161c2e"/>
  <rect x="250" y="114" width="72" height="72" rx="6" fill="rgba(255,255,255,0.07)"/>
  <rect x="263" y="128" width="44" height="32" rx="3" fill="#3a6ea5"/>
  <rect x="263" y="125" width="22" height="10" rx="3" fill="#3a6ea5"/>
  <text x="286" y="200" text-anchor="middle" fill="rgba(255,255,255,0.7)" font-family="sans-serif" font-size="10">Desktop</text>
  <rect x="357" y="114" width="72" height="72" rx="6" fill="rgba(255,255,255,0.07)"/>
  <rect x="370" y="128" width="44" height="32" rx="3" fill="#3a6ea5"/>
  <rect x="370" y="125" width="22" height="10" rx="3" fill="#3a6ea5"/>
  <text x="393" y="200" text-anchor="middle" fill="rgba(255,255,255,0.7)" font-family="sans-serif" font-size="10">Documents</text>
  <rect x="464" y="114" width="72" height="72" rx="6" fill="rgba(255,255,255,0.07)"/>
  <rect x="477" y="128" width="44" height="32" rx="3" fill="#3a6ea5"/>
  <rect x="477" y="125" width="22" height="10" rx="3" fill="#3a6ea5"/>
  <text x="500" y="200" text-anchor="middle" fill="rgba(255,255,255,0.7)" font-family="sans-serif" font-size="10">Downloads</text>
  <rect x="571" y="114" width="72" height="72" rx="6" fill="rgba(255,255,255,0.07)"/>
  <rect x="584" y="128" width="44" height="32" rx="3" fill="#3a6ea5"/>
  <rect x="584" y="125" width="22" height="10" rx="3" fill="#3a6ea5"/>
  <text x="607" y="200" text-anchor="middle" fill="rgba(255,255,255,0.7)" font-family="sans-serif" font-size="10">Music</text>
  <rect x="678" y="114" width="72" height="72" rx="6" fill="rgba(255,255,255,0.07)"/>
  <rect x="691" y="128" width="44" height="32" rx="3" fill="#3a6ea5"/>
  <rect x="691" y="125" width="22" height="10" rx="3" fill="#3a6ea5"/>
  <text x="714" y="200" text-anchor="middle" fill="rgba(255,255,255,0.7)" font-family="sans-serif" font-size="10">Pictures</text>
  <rect x="250" y="216" width="72" height="72" rx="6" fill="rgba(255,255,255,0.07)"/>
  <rect x="263" y="230" width="44" height="32" rx="3" fill="#3a6ea5"/>
  <rect x="263" y="227" width="22" height="10" rx="3" fill="#3a6ea5"/>
  <text x="286" y="302" text-anchor="middle" fill="rgba(255,255,255,0.7)" font-family="sans-serif" font-size="10">Templates</text>
  <rect x="357" y="216" width="72" height="72" rx="6" fill="rgba(255,255,255,0.07)"/>
  <rect x="370" y="230" width="44" height="32" rx="3" fill="#3a6ea5"/>
  <rect x="370" y="227" width="22" height="10" rx="3" fill="#3a6ea5"/>
  <text x="393" y="302" text-anchor="middle" fill="rgba(255,255,255,0.7)" font-family="sans-serif" font-size="10">Videos</text>
  <rect x="464" y="216" width="72" height="72" rx="6" fill="rgba(255,255,255,0.07)"/>
  <rect x="477" y="230" width="44" height="32" rx="3" fill="#3a6ea5"/>
  <rect x="477" y="227" width="22" height="10" rx="3" fill="#3a6ea5"/>
  <text x="500" y="302" text-anchor="middle" fill="rgba(255,255,255,0.7)" font-family="sans-serif" font-size="10">notes.txt</text>
  <rect x="571" y="216" width="72" height="72" rx="6" fill="rgba(255,255,255,0.07)"/>
  <rect x="584" y="230" width="44" height="32" rx="3" fill="#3a6ea5"/>
  <rect x="584" y="227" width="22" height="10" rx="3" fill="#3a6ea5"/>
  <text x="607" y="302" text-anchor="middle" fill="rgba(255,255,255,0.7)" font-family="sans-serif" font-size="10">photo.jpg</text>
  <rect x="678" y="216" width="72" height="72" rx="6" fill="rgba(255,255,255,0.07)"/>
  <rect x="691" y="230" width="44" height="32" rx="3" fill="#3a6ea5"/>
  <rect x="691" y="227" width="22" height="10" rx="3" fill="#3a6ea5"/>
  <text x="714" y="302" text-anchor="middle" fill="rgba(255,255,255,0.7)" font-family="sans-serif" font-size="10">script.sh</text>
  <rect x="250" y="318" width="72" height="72" rx="6" fill="rgba(255,255,255,0.07)"/>
  <rect x="263" y="332" width="44" height="32" rx="3" fill="#3a6ea5"/>
  <rect x="263" y="329" width="22" height="10" rx="3" fill="#3a6ea5"/>
  <text x="286" y="404" text-anchor="middle" fill="rgba(255,255,255,0.7)" font-family="sans-serif" font-size="10">project</text>
  <rect x="357" y="318" width="72" height="72" rx="6" fill="rgba(255,255,255,0.07)"/>
  <rect x="370" y="332" width="44" height="32" rx="3" fill="#3a6ea5"/>
  <rect x="370" y="329" width="22" height="10" rx="3" fill="#3a6ea5"/>
  <text x="393" y="404" text-anchor="middle" fill="rgba(255,255,255,0.7)" font-family="sans-serif" font-size="10">backup</text>
  <rect x="464" y="318" width="72" height="72" rx="6" fill="rgba(255,255,255,0.07)"/>
  <rect x="477" y="332" width="44" height="32" rx="3" fill="#3a6ea5"/>
  <rect x="477" y="329" width="22" height="10" rx="3" fill="#3a6ea5"/>
  <rect x="571" y="318" width="72" height="72" rx="6" fill="rgba(255,255,255,0.07)"/>
  <rect x="584" y="332" width="44" height="32" rx="3" fill="#3a6ea5"/>
  <rect x="584" y="329" width="22" height="10" rx="3" fill="#3a6ea5"/>
  <rect x="678" y="318" width="72" height="72" rx="6" fill="rgba(255,255,255,0.07)"/>
  <rect x="691" y="332" width="44" height="32" rx="3" fill="#3a6ea5"/>
  <rect x="691" y="329" width="22" height="10" rx="3" fill="#3a6ea5"/>
  <rect x="854" y="74" width="350" height="290" rx="8" fill="rgba(0,0,0,0.45)"/>
  <rect x="850" y="70" width="350" height="290" rx="8" fill="#0a0e1a"/>
  <rect x="850" y="70" width="350" height="30" rx="8" fill="#2a3450"/>
  <rect x="850" y="78" width="350" height="22" fill="#2a3450"/>
  <text x="1025" y="90" text-anchor="middle" fill="rgba(255,255,255,0.9)" font-family="sans-serif" font-size="13">QTerminal</text>
  <circle cx="1186" cy="85" r="6" fill="#ff5f5f"/>
  <circle cx="1168" cy="85" r="6" fill="#febc2e"/>
  <circle cx="1150" cy="85" r="6" fill="#5faf5f"/>
  <text x="865" y="130" fill="#7ec8e3" font-family="monospace" font-size="12">user@lxqt:~$</text>
  <text x="865" y="148" fill="white" font-family="monospace" font-size="12">screenfetch</text>
  <text x="865" y="168" fill="#5ea4d8" font-family="monospace" font-size="11">OS: LXQt on Debian 12</text>
  <text x="865" y="186" fill="rgba(255,255,255,0.7)" font-family="monospace" font-size="11">Kernel: 6.1.0-18-amd64</text>
  <text x="865" y="204" fill="rgba(255,255,255,0.7)" font-family="monospace" font-size="11">DE: LXQt 1.2.0</text>
  <text x="865" y="320" fill="#7ec8e3" font-family="monospace" font-size="12">user@lxqt:~$</text>
  <rect x="963" y="308" width="8" height="14" fill="#7ec8e3"/>
</svg>