<svg xmlns="http://www.w3.org/2000/svg" width="1280" height="720" viewBox="0 0 1280 720" role="img" aria-labelledby="de-title de-desc">
  <title id="de-title">Sway Wayland compositor preview</title>
  <desc id="de-desc">Sway tiling Wayland compositor with Waybar at top and four tiled windows.</desc>
  <rect width="1280" height="720" fill="#1a1b26"/>
  <rect width="1280" height="30" fill="#13141f"/>
  <rect x="4" y="4" width="22" height="22" rx="4" fill="#cba6f7"/>
  <text x="15" y="19" text-anchor="middle" fill="#1a1b26" font-family="monospace" font-size="11" font-weight="700">1</text>
  <rect x="30" y="4" width="22" height="22" rx="4" fill="#2a2b3a"/>
  <text x="41" y="19" text-anchor="middle" fill="rgba(255,255,255,0.6)" font-family="monospace" font-size="11">2</text>
  <rect x="56" y="4" width="22" height="22" rx="4" fill="#2a2b3a"/>
  <text x="67" y="19" text-anchor="middle" fill="rgba(255,255,255,0.6)" font-family="monospace" font-size="11">3</text>
  <text x="640" y="20" text-anchor="middle" fill="rgba(255,255,255,0.7)" font-family="sans-serif" font-size="12">Firefox — GitHub · sway</text>
  <circle cx="1100" cy="15" r="5" fill="rgba(255,255,255,0.7)"/>
  <circle cx="1116" cy="15" r="5" fill="rgba(255,255,255,0.7)"/>
  <circle cx="1132" cy="15" r="5" fill="rgba(255,255,255,0.7)"/>
  <text x="1228" y="19" text-anchor="middle" fill="rgba(255,255,255,0.9)" font-family="sans-serif" font-size="12">Mon 21:32:00</text>
  <rect x="0" y="30" width="640" height="360" fill="#cba6f7"/>
  <rect x="2" y="30" width="636" height="22" fill="#cba6f7"/>
  <rect x="2" y="52" width="636" height="336" fill="#0f1018"/>
  <text x="320" y="45" text-anchor="middle" fill="#1e2030" font-family="monospace" font-size="11">Firefox — GitHub</text>
  <rect x="640" y="30" width="640" height="360" fill="#cba6f7"/>
  <rect x="642" y="30" width="636" height="22" fill="#cba6f7"/>
  <rect x="642" y="52" width="636" height="336" fill="#0f1018"/>
  <text x="960" y="45" text-anchor="middle" fill="#1e2030" font-family="monospace" font-size="11">foot — nvim</text>
  <rect x="0" y="390" width="640" height="330" fill="#cba6f7"/>
  <rect x="2" y="390" width="636" height="22" fill="#cba6f7"/>
  <rect x="2" y="412" width="636" height="306" fill="#0f1018"/>
  <text x="320" y="405" text-anchor="middle" fill="#1e2030" font-family="monospace" font-size="11">foot — bash</text>
  <rect x="640" y="390" width="640" height="330" fill="#cba6f7"/>
  <rect x="642" y="390" width="636" height="22" fill="#cba6f7"/>
  <rect x="642" y="412" width="636" height="306" fill="#0f1018"/>
  <text x="960" y="405" text-anchor="middle" fill="#1e2030" font-family="monospace" font-size="11">foot — btop</text>
  <rect x="2" y="52" width="636" height="334" fill="#1a1b26"/>
  <rect x="6" y="56" width="628" height="26" fill="#13141f"/>
  <rect x="140" y="59" width="340" height="18" rx="9" fill="#2a2b3a"/>
  <text x="310" y="72" text-anchor="middle" fill="rgba(255,255,255,0.65)" font-family="sans-serif" font-size="10">github.com — Wayland</text>
  <rect x="6" y="86" width="628" height="296" fill="#1a1b26"/>
  <rect x="26" y="106" width="480" height="16" rx="3" fill="#2a2b3a"/>
  <rect x="26" y="130" width="340" height="10" rx="2" fill="#232436"/>
  <rect x="26" y="148" width="390" height="10" rx="2" fill="#232436"/>
  <rect x="26" y="166" width="310" height="10" rx="2" fill="#232436"/>
  <rect x="642" y="52" width="636" height="334" fill="#0f1018"/>
  <rect x="642" y="52" width="22" height="334" fill="#13141f"/>
  <text x="644" y="68" fill="rgba(255,255,255,0.3)" font-family="monospace" font-size="10">  1</text>
  <text x="668" y="68" fill="#cba6f7" font-family="monospace" font-size="10">local</text>
  <text x="700" y="68" fill="#89b4fa" font-family="monospace" font-size="10">wm =</text>
  <text x="730" y="68" fill="#a6e3a1" font-family="monospace" font-size="10">"sway"</text>
  <text x="644" y="84" fill="rgba(255,255,255,0.3)" font-family="monospace" font-size="10">  2</text>
  <text x="668" y="84" fill="rgba(255,255,255,0.7)" font-family="monospace" font-size="10">-- Wayland native</text>
  <text x="644" y="100" fill="rgba(255,255,255,0.3)" font-family="monospace" font-size="10">  3</text>
  <text x="668" y="100" fill="#cba6f7" font-family="monospace" font-size="10">vim.opt</text>
  <text x="720" y="100" fill="rgba(255,255,255,0.7)" font-family="monospace" font-size="10">.termguicolors =</text>
  <text x="868" y="100" fill="#fab387" font-family="monospace" font-size="10">true</text>
  <rect x="2" y="412" width="636" height="306" fill="#0f1018"/>
  <text x="12" y="434" fill="#cba6f7" font-family="monospace" font-size="11">user@sway:~$</text>
  <text x="12" y="450" fill="white" font-family="monospace" font-size="11">swaymsg -t get_version</text>
  <text x="12" y="468" fill="rgba(255,255,255,0.7)" font-family="monospace" font-size="11">{"human_readable_version": "1.9"}</text>
  <text x="12" y="486" fill="#cba6f7" font-family="monospace" font-size="11">user@sway:~$</text>
  <rect x="110" y="474" width="8" height="13" fill="#cba6f7"/>
  <rect x="642" y="412" width="636" height="306" fill="#0f1018"/>
  <text x="652" y="434" fill="#f38ba8" font-family="monospace" font-size="11">CPU [|||||||||||  ] 62%</text>
  <text x="652" y="452" fill="#a6e3a1" font-family="monospace" font-size="11">MEM [||||||       ] 44%</text>
  <text x="652" y="470" fill="#89dceb" font-family="monospace" font-size="11">NET ↓ 2.1 MB/s  ↑ 0.4 MB/s</text>
</svg>