<svg xmlns="http://www.w3.org/2000/svg" width="1280" height="720" viewBox="0 0 1280 720" role="img" aria-labelledby="de-title de-desc">
  <title id="de-title">Xfce desktop environment preview</title>
  <desc id="de-desc">Xfce with top and bottom panels, Thunar file manager, and xterm.</desc>
  <defs>
  <linearGradient id="xfce_bg" x1="0" y1="0" x2="0" y2="1">
    <stop offset="0%" stop-color="#244a7f"/>
    <stop offset="100%" stop-color="#1a2e4a"/>
  </linearGradient>
  </defs>
  <rect width="1280" height="720" fill="url(#xfce_bg)"/>
  <rect width="1280" height="28" fill="#1a2332"/>
  <rect x="2" y="2" width="90" height="24" rx="3" fill="rgba(255,255,255,0.08)"/>
  <text x="47" y="19" text-anchor="middle" fill="white" font-family="sans-serif" font-size="12">Applications</text>
  <rect x="96" y="2" width="52" height="24" rx="3" fill="rgba(255,255,255,0.06)"/>
  <text x="122" y="19" text-anchor="middle" fill="white" font-family="sans-serif" font-size="12">Places</text>
  <circle cx="1100" cy="14" r="5" fill="rgba(255,255,255,0.7)"/>
  <circle cx="1116" cy="14" r="5" fill="rgba(255,255,255,0.7)"/>
  <circle cx="1132" cy="14" r="5" fill="rgba(255,255,255,0.7)"/>
  <circle cx="1148" cy="14" r="5" fill="rgba(255,255,255,0.7)"/>
  <text x="1230" y="14" text-anchor="middle" fill="white" font-family="sans-serif" font-size="12">Mon 21:32</text>
  <rect y="692" width="1280" height="28" fill="#1a2332"/>
  <rect x="2" y="694" width="28" height="24" rx="3" fill="#0075c2"/>
  <text x="16" y="711" text-anchor="middle" fill="white" font-family="sans-serif" font-size="13">▼</text>
  <rect x="40" y="694" width="160" height="24" rx="3" fill="#2e4a6a"/>
  <text x="120" y="710" text-anchor="middle" fill="rgba(255,255,255,0.85)" font-family="sans-serif" font-size="11">Thunar — Home</text>
  <rect x="204" y="694" width="160" height="24" rx="3" fill="#1e3050"/>
  <text x="284" y="710" text-anchor="middle" fill="rgba(255,255,255,0.85)" font-family="sans-serif" font-size="11">Mousepad</text>
  <rect x="368" y="694" width="160" height="24" rx="3" fill="#1e3050"/>
  <text x="448" y="710" text-anchor="middle" fill="rgba(255,255,255,0.85)" font-family="sans-serif" font-size="11">xterm</text>
  <rect x="64" y="49" width="760" height="510" rx="8" fill="rgba(0,0,0,0.45)"/>
  <rect x="60" y="45" width="760" height="510" rx="8" fill="#1e2e42"/>
  <rect x="60" y="45" width="760" height="30" rx="8" fill="#2e4a6a"/>
  <rect x="60" y="53" width="760" height="22" fill="#2e4a6a"/>
  <text x="440" y="65" text-anchor="middle" fill="rgba(255,255,255,0.9)" font-family="sans-serif" font-size="13">Thunar — File Manager</text>
  <circle cx="74" cy="60" r="6" fill="#ff5555"/>
  <circle cx="92" cy="60" r="6" fill="#febc2e"/>
  <circle cx="110" cy="60" r="6" fill="#55ff55"/>
  <rect x="60" y="75" width="760" height="26" fill="#253c58"/>
  <rect x="200" y="78" width="300" height="18" rx="3" fill="#1a2b40"/>
  <text x="350" y="91" text-anchor="middle" fill="rgba(255,255,255,0.7)" font-family="sans-serif" font-size="11">/home/user</text>
  <rect x="60" y="101" width="158" height="454" fill="#1e2e42"/>
  <text x="76" y="124" text-anchor="start" fill="rgba(255,255,255,0.45)" font-family="sans-serif" font-size="10">PLACES</text>
  <rect x="67" y="129" width="143" height="24" rx="3" fill="rgba(255,255,255,0.1)"/>
  <text x="80" y="146" text-anchor="start" fill="white" font-family="sans-serif" font-size="12">Home</text>
  <text x="80" y="168" text-anchor="start" fill="rgba(255,255,255,0.6)" font-family="sans-serif" font-size="12">Desktop</text>
  <text x="80" y="190" text-anchor="start" fill="rgba(255,255,255,0.6)" font-family="sans-serif" font-size="12">Documents</text>
  <text x="80" y="212" text-anchor="start" fill="rgba(255,255,255,0.6)" font-family="sans-serif" font-size="12">Downloads</text>
  <text x="80" y="234" text-anchor="start" fill="rgba(255,255,255,0.6)" font-family="sans-serif" font-size="12">Music</text>
  <text x="80" y="256" text-anchor="start" fill="rgba(255,255,255,0.6)" font-family="sans-serif" font-size="12">Pictures</text>
  <text x="80" y="278" text-anchor="start" fill="rgba(255,255,255,0.6)" font-family="sans-serif" font-size="12">Videos</text>
  <text x="76" y="308" text-anchor="start" fill="rgba(255,255,255,0.45)" font-family="sans-serif" font-size="10">DEVICES</text>
  <text x="80" y="328" text-anchor="start" fill="rgba(255,255,255,0.6)" font-family="sans-serif" font-size="12">sdb1 (250GB)</text>
  <rect x="218" y="101" width="602" height="454" fill="#16243a"/>
  <rect x="238" y="118" width="74" height="74" rx="6" fill="rgba(255,255,255,0.07)"/>
  <rect x="251" y="132" width="44" height="32" rx="3" fill="#0075c2"/>
  <rect x="251" y="129" width="22" height="10" rx="3" fill="#0075c2"/>
  <text x="275" y="206" text-anchor="middle" fill="rgba(255,255,255,0.7)" font-family="sans-serif" font-size="10">Desktop</text>
  <rect x="346" y="118" width="74" height="74" rx="6" fill="rgba(255,255,255,0.07)"/>
  <rect x="359" y="132" width="44" height="32" rx="3" fill="#0075c2"/>
  <rect x="359" y="129" width="22" height="10" rx="3" fill="#0075c2"/>
  <text x="383" y="206" text-anchor="middle" fill="rgba(255,255,255,0.7)" font-family="sans-serif" font-size="10">Documents</text>
  <rect x="454" y="118" width="74" height="74" rx="6" fill="rgba(255,255,255,0.07)"/>
  <rect x="467" y="132" width="44" height="32" rx="3" fill="#0075c2"/>
  <rect x="467" y="129" width="22" height="10" rx="3" fill="#0075c2"/>
  <text x="491" y="206" text-anchor="middle" fill="rgba(255,255,255,0.7)" font-family="sans-serif" font-size="10">Downloads</text>
  <rect x="562" y="118" width="74" height="74" rx="6" fill="rgba(255,255,255,0.07)"/>
  <rect x="575" y="132" width="44" height="32" rx="3" fill="#0075c2"/>
  <rect x="575" y="129" width="22" height="10" rx="3" fill="#0075c2"/>
  <text x="599" y="206" text-anchor="middle" fill="rgba(255,255,255,0.7)" font-family="sans-serif" font-size="10">Music</text>
  <rect x="670" y="118" width="74" height="74" rx="6" fill="rgba(255,255,255,0.07)"/>
  <rect x="683" y="132" width="44" height="32" rx="3" fill="#0075c2"/>
  <rect x="683" y="129" width="22" height="10" rx="3" fill="#0075c2"/>
  <text x="707" y="206" text-anchor="middle" fill="rgba(255,255,255,0.7)" font-family="sans-serif" font-size="10">Pictures</text>
  <rect x="238" y="222" width="74" height="74" rx="6" fill="rgba(255,255,255,0.07)"/>
  <rect x="251" y="236" width="44" height="32" rx="3" fill="#0075c2"/>
  <rect x="251" y="233" width="22" height="10" rx="3" fill="#0075c2"/>
  <text x="275" y="310" text-anchor="middle" fill="rgba(255,255,255,0.7)" font-family="sans-serif" font-size="10">Templates</text>
  <rect x="346" y="222" width="74" height="74" rx="6" fill="rgba(255,255,255,0.07)"/>
  <rect x="359" y="236" width="44" height="32" rx="3" fill="#0075c2"/>
  <rect x="359" y="233" width="22" height="10" rx="3" fill="#0075c2"/>
  <text x="383" y="310" text-anchor="middle" fill="rgba(255,255,255,0.7)" font-family="sans-serif" font-size="10">Videos</text>
  <rect x="454" y="222" width="74" height="74" rx="6" fill="rgba(255,255,255,0.07)"/>
  <rect x="467" y="236" width="44" height="32" rx="3" fill="#0075c2"/>
  <rect x="467" y="233" width="22" height="10" rx="3" fill="#0075c2"/>
  <text x="491" y="310" text-anchor="middle" fill="rgba(255,255,255,0.7)" font-family="sans-serif" font-size="10">notes.txt</text>
  <rect x="562" y="222" width="74" height="74" rx="6" fill="rgba(255,255,255,0.07)"/>
  <rect x="575" y="236" width="44" height="32" rx="3" fill="#0075c2"/>
  <rect x="575" y="233" width="22" height="10" rx="3" fill="#0075c2"/>
  <text x="599" y="310" text-anchor="middle" fill="rgba(255,255,255,0.7)" font-family="sans-serif" font-size="10">photo.jpg</text>
  <rect x="670" y="222" width="74" height="74" rx="6" fill="rgba(255,255,255,0.07)"/>
  <rect x="683" y="236" width="44" height="32" rx="3" fill="#0075c2"/>
  <rect x="683" y="233" width="22" height="10" rx="3" fill="#0075c2"/>
  <text x="707" y="310" text-anchor="middle" fill="rgba(255,255,255,0.7)" font-family="sans-serif" font-size="10">script.sh</text>
  <rect x="238" y="326" width="74" height="74" rx="6" fill="rgba(255,255,255,0.07)"/>
  <rect x="251" y="340" width="44" height="32" rx="3" fill="#0075c2"/>
  <rect x="251" y="337" width="22" height="10" rx="3" fill="#0075c2"/>
  <text x="275" y="414" text-anchor="middle" fill="rgba(255,255,255,0.7)" font-family="sans-serif" font-size="10">project</text>
  <rect x="346" y="326" width="74" height="74" rx="6" fill="rgba(255,255,255,0.07)"/>
  <rect x="359" y="340" width="44" height="32" rx="3" fill="#0075c2"/>
  <rect x="359" y="337" width="22" height="10" rx="3" fill="#0075c2"/>
  <text x="383" y="414" text-anchor="middle" fill="rgba(255,255,255,0.7)" font-family="sans-serif" font-size="10">backup</text>
  <rect x="454" y="326" width="74" height="74" rx="6" fill="rgba(255,255,255,0.07)"/>
  <rect x="467" y="340" width="44" height="32" rx="3" fill="#0075c2"/>
  <rect x="467" y="337" width="22" height="10" rx="3" fill="#0075c2"/>
  <rect x="562" y="326" width="74" height="74" rx="6" fill="rgba(255,255,255,0.07)"/>
  <rect x="575" y="340" width="44" height="32" rx="3" fill="#0075c2"/>
  <rect x="575" y="337" width="22" height="10" rx="3" fill="#0075c2"/>
  <rect x="670" y="326" width="74" height="74" rx="6" fill="rgba(255,255,255,0.07)"/>
  <rect x="683" y="340" width="44" height="32" rx="3" fill="#0075c2"/>
  <rect x="683" y="337" width="22" height="10" rx="3" fill="#0075c2"/>
  <rect x="854" y="84" width="360" height="270" rx="8" fill="rgba(0,0,0,0.45)"/>
  <rect x="850" y="80" width="360" height="270" rx="8" fill="#000000"/>
  <rect x="850" y="80" width="360" height="30" rx="8" fill="#2e4a6a"/>
  <rect x="850" y="88" width="360" height="22" fill="#2e4a6a"/>
  <text x="1030" y="100" text-anchor="middle" fill="rgba(255,255,255,0.9)" font-family="sans-serif" font-size="13">xterm</text>
  <circle cx="864" cy="95" r="6" fill="#ff5555"/>
  <circle cx="882" cy="95" r="6" fill="#febc2e"/>
  <circle cx="900" cy="95" r="6" fill="#55ff55"/>
  <text x="864" y="138" fill="#55ff55" font-family="monospace" font-size="12">user@xfce:~$</text>
  <text x="864" y="156" fill="white" font-family="monospace" font-size="12">uname -a</text>
  <text x="864" y="176" fill="#55ff55" font-family="monospace" font-size="10">Linux xfce 6.1.0 x86_64 GNU/Linux</text>
  <text x="864" y="194" fill="#55ff55" font-family="monospace" font-size="12">user@xfce:~$</text>
  <rect x="960" y="182" width="8" height="14" fill="#55ff55"/>
</svg>